<?xml version="1.0" encoding="UTF-8"?><svg data-tags="bulb" id="Layer_1" xmlns="http://www.w3.org/2000/svg" width="100" height="100" viewBox="0 0 100 100"><path d="M74.234185416389664,44.687526852949304c0,6.656464138730371-2.666814760379566,12.688553987180057-7.00569228411041,17.069754855299834-2.719731051700364,2.751477596930272-4.635185340839598,6.233158029839615-5.248974758089389,10.053481735090827-.296311854050145,1.862542034768921-.380974690609946,3.894401668760111,0,5.905099630559562h-23.969618593710038c.380974690609946-2.010697961799451.296311854050145-4.053142468830629,0-5.915676429709492-.613793454200277-3.788577160010391-2.476331452020531-7.270253555980162-5.185481667620479-9.989984607680526-4.37062003201936-4.381200868119777-7.06918537457932-10.434456425700773-7.06918537457932-17.101501400529742,0-13.312928277469837,10.730768279760014-24.117774520740568,24.001365138949041-24.234181884059581,13.270596859190846-.116407363320832,24.445832920029716,10.804848261739608,24.467002666109693,24.202435338818759l.010584873050902.010572762210359Z" fill="none" stroke="#171713" stroke-linecap="round" stroke-linejoin="round" stroke-width="2"/><rect x="37.152710762925324" y="81.282198257783421" width="25.68400064322725" height="6.772873577189785" rx="3.386432721908835" ry="3.386432721908835" fill="#fff3b6"/><rect x="41.43866796709284" y="89.727126502023793" width="17.122667095483507" height="6.772873541337958" rx="3.386432735606582" ry="3.386432735606582" fill="#fff3b6"/><line x1="90.161012162909174" y1="32.104801411458538" x2="81.642014063299939" y2="35.311331662518569" fill="none" stroke="#171713" stroke-linecap="round" stroke-linejoin="round" stroke-width="2"/><line x1="74.752731160979238" y1="11.521620587249345" x2="69.472009857659941" y2="19.246927806589156" fill="none" stroke="#171713" stroke-linecap="round" stroke-linejoin="round" stroke-width="2"/><line x1="50.444469294940063" y1="13.034933467408337" x2="50.338644786188524" y2="3.5" fill="none" stroke="#171713" stroke-linecap="round" stroke-linejoin="round" stroke-width="2"/><line x1="31.311108260410037" y1="18.707214334379387" x2="25.73407106609011" y2="10.939576705999571" fill="none" stroke="#171713" stroke-linecap="round" stroke-linejoin="round" stroke-width="2"/><line x1="18.749546509588981" y1="34.263655300290338" x2="9.838987837089007" y2="31.141783848839623" fill="none" stroke="#171713" stroke-linecap="round" stroke-linejoin="round" stroke-width="2"/><circle cx="50.000001513852567" cy="44.613448889431766" r="15.873918529097409" fill="#ffd900"/><polyline points="50.000001513850293 77.726439873049458 50.000001513850293 50.444466519529669 41.724398976970406 42.168863982649782" fill="none" stroke="#171713" stroke-miterlimit="10" stroke-width="2"/><polyline points="50.000001513850293 77.726439873049458 50.000001513850293 50.444466519529669 58.27560405073018 42.168863982649782" fill="none" stroke="#171713" stroke-miterlimit="10" stroke-width="2"/></svg>