<?xml version="1.0" encoding="UTF-8"?><svg id="Layer_1" data-name="Layer 1" xmlns="http://www.w3.org/2000/svg" viewBox="0 0 100 100"><defs><style>.cls-1{fill:#fff4bc}.cls-2{fill:none;stroke:#fff;stroke-dasharray:6.96 6.96;stroke-miterlimit:10;stroke-width:3.48px}.cls-3{fill:#ffc83a}</style></defs><path class="cls-2" d="M91.2,28.42c-1.92-3.66-4.32-7.03-7.1-10.04-3.63-3.92-7.93-7.21-12.72-9.69-6.4-3.32-13.67-5.2-21.38-5.2-6.7,0-13.06,1.42-18.81,3.97-11.47,5.08-20.51,14.67-24.86,26.53-1.83,4.99-2.83,10.38-2.83,16.01,0,25.68,20.82,46.5,46.5,46.5,13.94,0,26.45-6.14,34.97-15.85,7.18-8.18,11.53-18.9,11.53-30.64,0-7.79-1.92-15.13-5.3-21.58h0Z"/><path class="cls-1" d="M79.67,35.39c-1.38-2.64-3.11-5.06-5.12-7.23-2.62-2.82-5.71-5.19-9.16-6.98-4.61-2.39-9.85-3.74-15.4-3.74-4.82,0-9.41,1.02-13.55,2.86-8.26,3.66-14.77,10.57-17.91,19.11-1.32,3.59-2.04,7.48-2.04,11.53,0,18.5,15,33.49,33.49,33.49,10.04,0,19.05-4.42,25.19-11.42,5.17-5.89,8.3-13.62,8.3-22.07,0-5.61-1.38-10.89-3.82-15.54h0Z"/><path class="cls-3" d="M57.22,24.71c-.71.57-2.29,2.84-1.66,3.41.63.57,2.4,1.83,3.22,1.77.82-.06,2.84-1.7,4.17-1.26,1.33.44,7.32,3.09,8.21,2.97.5-.07,2.09-1.87,3.4-3.43-2.62-2.82-5.71-5.19-9.16-6.98-1.18,1.14-3.06,2.88-3.77,3.09-1.07.32-3.7-.13-4.41.44Z"/><path class="cls-3" d="M22.03,46.8c2.29,1.67,6.74,6.05,7.09,3.82.35-2.23.9-3.75-.49-5.63-1.39-1.88-3.48-3.34-2.16-4.38,1.32-1.04,6.88.63,10.15-2.5,3.27-3.13,5.63-5,5.84-6.95.21-1.95,4.38-.42,4.73-3.13.35-2.71-2.36-2.43-5.14-3.2-2.78-.76-5.59-4.53-5.6-4.55-8.27,3.66-14.78,10.57-17.91,19.11,0,0,1.2,5.73,3.49,7.4h0Z"/><path class="cls-3" d="M79.66,35.39c-.82.69-1.9,1.66-2.89,2.71-1.92,2.03-5.2,3.28-6.89,3.39-1.69.11-4.41-1.47-6.55-3.61-2.15-2.15-5.76-1.13-6.68-1.02-.92.11-2.81,1.24-4.05,3.28-1.24,2.03-.79,4.86.79,7.15,1.58,2.29,8.02,3.96,8.02,3.96,0,0,3.05-1.38,5.42-.31,2.37,1.07,1.47,2,1.92,4.19.45,2.19,3.84,10.44,3.84,10.44,0,0-1.36,3.5.23,5.09.54.54,1.43,1.43,2.36,2.36,5.17-5.89,8.3-13.62,8.3-22.07,0-5.61-1.38-10.89-3.82-15.54Z"/><path class="cls-3" d="M52.26,57.11c-2.4-.2-1.93-5.14-3.2-5.86-1.27-.72-5.34.12-6.95,0-1.6-.12-2.54-3.89-3.27-3.96-.73-.07-5.61,4.54-6.01,5.68-.4,1.13.4,2.54.47,4.07.07,1.53,2,3.14,2,3.14,1.47.54,5.47,1.8,5.47,1.8,0,0,.2,9.15.73,11.89.53,2.74,2.6,5.01,4.47,5.48,1.87.47.73-3.54.73-4.94s1.8-1.34,3.27-2.6c1.46-1.27.54-2.4,2.07-4.41,1.54-2,5.34-5.41,5.14-8.41-.2-3.01-2.54-1.67-4.94-1.87h0Z"/></svg>