<?xml version="1.0" encoding="UTF-8"?><svg id="Layer_1" data-name="Layer 1" xmlns="http://www.w3.org/2000/svg" viewBox="0 0 100 100"><defs><style>.cls-1{fill:#fff}.cls-2{fill:#05a126}</style></defs><polygon class="cls-2" points="60.23 18.93 46.11 26.66 46.1 11.18 60.23 18.93"/><path class="cls-1" d="M32.3,21.16c-8.1.22-14.54,6.87-14.54,14.93v22.36c6.52,1.18,10.85,7.12,10.23,13.54-.61,6.39-6,11.27-12.41,11.3-6.41.03-11.85-4.83-12.51-11.2-.67-6.47,3.66-12.44,10.2-13.65l.06-22.95c.03-10.05,8.23-18.2,18.2-18.78h10.11s.02-9.47.02-9.47c0-.75.51-1.37,1.03-1.7.61-.39,1.45-.5,2.13-.13l21.04,11.47c.82.45,1.28,1.14,1.29,2.02.01.83-.43,1.58-1.24,2.03l-21.21,11.55c-.67.36-1.53.13-2.12-.26-.48-.32-.93-.95-.93-1.68v-9.39s-9.36,0-9.36,0ZM60.23,18.93l-14.13-7.74v15.48s14.13-7.73,14.13-7.73ZM23.57,70.78c0-4.45-3.6-8.05-8.05-8.05s-8.05,3.6-8.05,8.05,3.6,8.05,8.05,8.05,8.05-3.6,8.05-8.05Z"/><path class="cls-1" d="M58.34,92.68c0,.77-.45,1.4-.95,1.71-.58.36-1.44.6-2.12.22l-21.37-11.66c-.74-.4-1.06-1.24-1.04-1.98.01-.8.46-1.5,1.24-1.93l21.04-11.48c.66-.36,1.52-.28,2.12.07.48.28,1.08.91,1.08,1.66l.02,9.52h8.39c7.97.3,15.38-5.9,15.41-14.04l.1-23.24c-6.46-1.18-10.74-6.95-10.26-13.31.48-6.28,5.67-11.38,12.11-11.52,1.4-.18,2.53.77,2.6,2.09.08,1.34-.97,2.37-2.35,2.38-4.41.04-7.88,3.67-7.93,7.95-.05,4.41,3.48,8.04,7.88,8.14,4.35.1,8.12-3.38,8.21-7.83.03-1.34.81-2.37,2.13-2.44,1.23-.06,2.34.82,2.35,2.18.04,6.06-4.25,11.25-10.26,12.37l-.05,22.84c-.02,10.16-8.34,18.44-18.44,18.9h-9.88s-.02,9.4-.02,9.4ZM53.9,88.79v-15.47s-14.13,7.74-14.13,7.74l14.13,7.72Z"/><polygon class="cls-2" points="53.9 88.79 39.77 81.07 53.91 73.33 53.9 88.79"/></svg>